# xmcd
#
# Track frame offsets:
#	150
#	14706
#	33718
#	49401
#	66310
#	78069
#	100284
#	120269
#	135995
#	156731
#	170165
#	192464
#	217733
#	233727
#
# Disc length: 3339 seconds
#
# Revision: 0
# Processed by: cddbd v1.4PL0 Copyright (c) Steve Scherf et al.
# Submitted via: EasyCDDAExtractor 4.6.0.1
#
DISCID=c50d090e
DTITLE=The Gaither Vocal Band - I Do Believe
DYEAR=1900
DGENRE=Gospel
TTITLE0=He's Watching Me
TTITLE1=Hide Thou Me
TTITLE2=Where The River Flows
TTITLE3=Where No One Stands Alone
TTITLE4=Oh, What A Time
TTITLE5=I Do Believe
TTITLE6=More Then Ever
TTITLE7=The Love Of God
TTITLE8=On The Authority
TTITLE9=Steel On Steel
TTITLE10=Make It Real
TTITLE11=Sinner Saved By Grace
TTITLE12=One Good Song
TTITLE13=Something To Say
EXTD=
EXTT0=
EXTT1=
EXTT2=
EXTT3=
EXTT4=
EXTT5=
EXTT6=
EXTT7=
EXTT8=
EXTT9=
EXTT10=
EXTT11=
EXTT12=
EXTT13=
PLAYORDER=
